<svg width="40" height="40" viewBox="0 0 40 40" fill="none" xmlns="http://www.w3.org/2000/svg">
<path d="M20 0C8.97167 0 0 8.97167 0 20C0 31.0283 8.97167 40 20 40C31.0283 40 40 31.0283 40 20C40 8.97167 31.0283 0 20 0ZM25.9917 19.1667H22.5C22.5 24.1883 22.5 30.8333 22.5 30.8333H17.5C17.5 30.8333 17.5 24.2483 17.5 19.1667H14.1667V15.8333H17.5V13.8933C17.5 12.06 18.0867 9.195 21.915 9.195L25.8333 9.20667V13.05C25.8333 13.05 23.895 13.05 23.4867 13.05C23.08 13.05 22.5 13.255 22.5 14.1283V15.8333H26.3983L25.9917 19.1667Z" fill="#414155"/>
</svg>
