<svg width="20" height="17" viewBox="0 0 20 17" fill="none" xmlns="http://www.w3.org/2000/svg">
<g id="folder-1-alternate">
<path id="Shape" fill-rule="evenodd" clip-rule="evenodd" d="M2.5 16.875H17.5C18.8807 16.875 20 15.7557 20 14.375V5.625C20 4.24429 18.8807 3.125 17.5 3.125H9.06125C8.86453 3.125 8.67928 3.03238 8.56125 2.875L7.625 1.625C7.15286 0.995483 6.41189 0.625 5.625 0.625H2.5C1.11929 0.625 0 1.74429 0 3.125V14.375C0 15.7557 1.11929 16.875 2.5 16.875ZM2.5 13.75V3.75C2.5 3.40482 2.77982 3.125 3.125 3.125H5.3125C5.50922 3.125 5.69447 3.21762 5.8125 3.375L6.75 4.625C7.22214 5.25452 7.96311 5.625 8.75 5.625H16.875C17.2202 5.625 17.5 5.90482 17.5 6.25V13.75C17.5 14.0952 17.2202 14.375 16.875 14.375H3.125C2.77982 14.375 2.5 14.0952 2.5 13.75Z" fill="#86869F"/>
</g>
</svg>
