<svg width="22" height="17" viewBox="0 0 22 17" fill="none" xmlns="http://www.w3.org/2000/svg">
<g id="team-meeting-chat">
<path id="Shape" fill-rule="evenodd" clip-rule="evenodd" d="M8.18984 13.3713C8.26784 13.4395 8.30004 13.5462 8.27275 13.6462C8.10383 14.2741 8.01765 14.9214 8.01639 15.5716C8.01639 15.6132 8.01831 15.6545 8.02023 15.6957C8.02213 15.7366 8.02402 15.7774 8.02402 15.8182C8.02786 15.8933 8.00064 15.9666 7.94875 16.0211C7.89759 16.0756 7.82607 16.1064 7.7513 16.1062H0.616752C0.441043 16.1061 0.276567 16.0198 0.176801 15.8751C0.0770345 15.7305 0.0547213 15.5461 0.117116 15.3818C0.522351 14.3213 1.27032 13.4267 2.24221 12.84C2.31814 12.794 2.36695 12.7139 2.37303 12.6254C2.3791 12.5368 2.3417 12.4508 2.27275 12.3949C0.946317 11.328 0.434335 9.54215 0.994044 7.93456C1.55375 6.32697 3.06415 5.24521 4.76635 5.2328C6.46855 5.2204 7.99454 6.28005 8.57761 7.8793C9.16068 9.47858 8.67478 11.2717 7.36403 12.3578C7.29569 12.4145 7.25938 12.501 7.26677 12.5895C7.27416 12.678 7.32432 12.7572 7.40112 12.8018C7.6815 12.9662 7.94561 13.1568 8.18984 13.3713ZM3.1313 8.61488C3.05368 8.64676 2.99525 8.71286 2.97312 8.79379C2.92963 8.94934 2.90761 9.11011 2.90766 9.27161C2.90766 10.3109 3.75018 11.1534 4.78948 11.1534C5.82878 11.1534 6.6713 10.3109 6.6713 9.27161C6.67115 9.24872 6.66074 9.2271 6.64293 9.21271C6.6257 9.19736 6.60232 9.19092 6.57966 9.19525C5.47691 9.39717 4.33832 9.19624 3.3713 8.62908C3.29781 8.58743 3.20918 8.5822 3.1313 8.61488Z" fill="#86869F"/>
<path id="Shape_2" fill-rule="evenodd" clip-rule="evenodd" d="M12.9407 9.59235C13.0189 9.64743 13.0627 9.73929 13.0562 9.83471C13.0498 9.9301 12.994 10.0152 12.9091 10.0593C10.8361 11.1159 9.53 13.2449 9.52728 15.5716C9.52728 15.8668 9.76661 16.1062 10.0618 16.1062H21.3855C21.6807 16.1062 21.92 15.8668 21.92 15.5716C21.9172 13.2124 20.5748 11.0595 18.4575 10.0189C18.3708 9.97684 18.313 9.89205 18.3053 9.79605C18.2977 9.70006 18.3415 9.6072 18.4204 9.55199C18.6559 9.38636 18.8751 9.19858 19.0749 8.99126C20.8716 7.13129 20.8521 4.17633 19.031 2.34027C17.2099 0.5042 14.2552 0.460514 12.3806 2.24193C10.506 4.02335 10.3991 6.97644 12.14 8.88872C12.379 9.15323 12.6477 9.38935 12.9407 9.59235ZM16.5287 13.4825C16.5128 13.9142 16.1583 14.2558 15.7264 14.2558C15.2945 14.2558 14.9399 13.9142 14.924 13.4825V12.1647C14.9399 11.7331 15.2945 11.3914 15.7264 11.3914C16.1583 11.3914 16.5128 11.7331 16.5287 12.1647V13.4825ZM13.1796 4.8938C13.0862 5.1595 13.0382 5.43906 13.0378 5.72072H13.0411C13.0418 6.77982 13.6828 7.73337 14.6633 8.13381C14.9746 8.26256 15.3082 8.32891 15.6451 8.32907C17.078 8.31029 18.2352 7.1536 18.2546 5.72072C18.2547 5.68132 18.2371 5.64397 18.2066 5.61899C18.1762 5.59403 18.1361 5.58411 18.0975 5.59198C16.5418 5.91886 14.9201 5.61771 13.5855 4.75417C13.515 4.70911 13.4279 4.6987 13.3488 4.7259C13.2697 4.7531 13.2074 4.81495 13.1796 4.8938Z" fill="#86869F"/>
</g>
</svg>
