<svg width="24" height="17" viewBox="0 0 24 17" fill="none" xmlns="http://www.w3.org/2000/svg">
<g id="team-meeting-chat">
<g id="Shape">
<path fill-rule="evenodd" clip-rule="evenodd" d="M9.18984 13.3713C9.26784 13.4395 9.30004 13.5462 9.27275 13.6462C9.10383 14.2741 9.01765 14.9214 9.01639 15.5716C9.01639 15.6132 9.01831 15.6545 9.02023 15.6957C9.02213 15.7366 9.02402 15.7774 9.02402 15.8182C9.02786 15.8933 9.00064 15.9666 8.94875 16.0211C8.89759 16.0756 8.82607 16.1064 8.7513 16.1062H1.61675C1.44104 16.1061 1.27657 16.0198 1.1768 15.8751C1.07703 15.7305 1.05472 15.5461 1.11712 15.3818C1.52235 14.3213 2.27032 13.4267 3.24221 12.84C3.31814 12.794 3.36695 12.7139 3.37303 12.6254C3.3791 12.5368 3.3417 12.4508 3.27275 12.3949C1.94632 11.328 1.43433 9.54215 1.99404 7.93456C2.55375 6.32696 4.06415 5.24521 5.76635 5.23281C7.46855 5.2204 8.99454 6.28004 9.57761 7.87931C10.1607 9.47858 9.67478 11.2717 8.36403 12.3578C8.29569 12.4145 8.25938 12.501 8.26677 12.5895C8.27416 12.678 8.32432 12.7572 8.40112 12.8018C8.6815 12.9662 8.94561 13.1568 9.18984 13.3713ZM4.1313 8.61489C4.05368 8.64677 3.99525 8.71286 3.97312 8.7938C3.92963 8.94934 3.90761 9.1101 3.90766 9.27161C3.90766 10.3109 4.75018 11.1534 5.78948 11.1534C6.82878 11.1534 7.6713 10.3109 7.6713 9.27161C7.67115 9.24872 7.66074 9.2271 7.64293 9.2127C7.6257 9.19736 7.60232 9.19091 7.57966 9.19525C6.47691 9.39717 5.33832 9.19624 4.3713 8.62907C4.29781 8.58743 4.20918 8.58219 4.1313 8.61489Z" fill="#16D898"/>
<path d="M9.27275 13.6462L8.7904 13.5145L8.78992 13.5163L9.27275 13.6462ZM9.18984 13.3713L8.85997 13.747L8.86072 13.7477L9.18984 13.3713ZM9.01639 15.5716L8.51639 15.5707V15.5716H9.01639ZM9.02023 15.6957L9.51969 15.6725L9.51969 15.6725L9.02023 15.6957ZM9.02402 15.8182H8.52402V15.8309L8.52468 15.8437L9.02402 15.8182ZM8.94875 16.0211L8.58684 15.6761L8.58411 15.679L8.94875 16.0211ZM8.7513 16.1062L8.75305 15.6062H8.7513V16.1062ZM1.61675 16.1062L1.61668 16.6062H1.61675V16.1062ZM1.1768 15.8751L1.58839 15.5912L1.1768 15.8751ZM1.11712 15.3818L0.650054 15.2033L0.649702 15.2043L1.11712 15.3818ZM3.24221 12.84L3.50061 13.268L3.5012 13.2677L3.24221 12.84ZM3.27275 12.3949L3.58775 12.0066L3.58612 12.0053L3.27275 12.3949ZM5.76635 5.23281L5.76999 5.73279L5.76635 5.23281ZM9.57761 7.87931L10.0474 7.70804L10.0474 7.70804L9.57761 7.87931ZM8.36403 12.3578L8.04501 11.9728L8.04478 11.973L8.36403 12.3578ZM8.40112 12.8018L8.65396 12.3704L8.65209 12.3694L8.40112 12.8018ZM3.97312 8.7938L4.45466 8.92841L4.45541 8.92566L3.97312 8.7938ZM4.1313 8.61489L4.32126 9.07741L4.32482 9.07592L4.1313 8.61489ZM3.90766 9.27161L4.40766 9.27161L4.40766 9.27146L3.90766 9.27161ZM7.6713 9.27161L8.17131 9.27161L8.17129 9.26844L7.6713 9.27161ZM7.64293 9.2127L7.31045 9.58614L7.31937 9.59408L7.32866 9.60159L7.64293 9.2127ZM7.57966 9.19525L7.66972 9.68709L7.67365 9.68634L7.57966 9.19525ZM4.3713 8.62907L4.62428 8.19773L4.61777 8.19404L4.3713 8.62907ZM9.75511 13.7778C9.83281 13.4932 9.74111 13.1891 9.51897 12.9949L8.86072 13.7477C8.79457 13.6898 8.76726 13.5993 8.7904 13.5145L9.75511 13.7778ZM9.51639 15.5726C9.51756 14.9659 9.59797 14.3619 9.75559 13.7761L8.78992 13.5163C8.60969 14.1862 8.51773 14.8769 8.51639 15.5707L9.51639 15.5726ZM9.51969 15.6725C9.51768 15.6294 9.51639 15.5997 9.51639 15.5716H8.51639C8.51639 15.6268 8.51894 15.6796 8.52077 15.7189L9.51969 15.6725ZM9.52402 15.8182C9.52402 15.7638 9.5215 15.7114 9.51969 15.6725L8.52077 15.7189C8.52276 15.7618 8.52402 15.791 8.52402 15.8182H9.52402ZM9.31065 16.3661C9.45729 16.2123 9.53422 16.0049 9.52337 15.7927L8.52468 15.8437C8.52151 15.7816 8.54399 15.721 8.58686 15.6761L9.31065 16.3661ZM8.74954 16.6062C8.96307 16.6069 9.16731 16.5189 9.3134 16.3632L8.58411 15.679C8.62788 15.6323 8.68907 15.6059 8.75305 15.6062L8.74954 16.6062ZM1.61675 16.6062H8.7513V15.6062H1.61675V16.6062ZM0.765214 16.159C0.958298 16.439 1.27662 16.6061 1.61668 16.6062L1.61682 15.6062C1.60546 15.6062 1.59483 15.6006 1.58839 15.5912L0.765214 16.159ZM0.649702 15.2043C0.528945 15.5222 0.572129 15.8791 0.765214 16.159L1.58839 15.5912C1.58194 15.5819 1.5805 15.57 1.58453 15.5594L0.649702 15.2043ZM2.9838 12.4119C1.91649 13.0563 1.09508 14.0387 0.650055 15.2033L1.58418 15.5603C1.94962 14.6039 2.62415 13.7971 3.50061 13.268L2.9838 12.4119ZM2.8742 12.5911C2.87926 12.5173 2.91994 12.4506 2.98322 12.4123L3.5012 13.2677C3.71635 13.1374 3.85463 12.9105 3.87185 12.6596L2.8742 12.5911ZM2.95776 12.7832C2.90031 12.7366 2.86913 12.6649 2.8742 12.5911L3.87185 12.6596C3.88907 12.4087 3.78308 12.165 3.58774 12.0066L2.95776 12.7832ZM1.52185 7.77015C0.892615 9.57743 1.46819 11.5851 2.95938 12.7845L3.58612 12.0053C2.42444 11.0709 1.97605 9.50688 2.46624 8.09896L1.52185 7.77015ZM5.7627 4.73282C3.84908 4.74676 2.15108 5.96288 1.52185 7.77015L2.46624 8.09896C2.95643 6.69104 4.27922 5.74365 5.76999 5.73279L5.7627 4.73282ZM10.0474 7.70804C9.39187 5.91013 7.67633 4.71888 5.7627 4.73282L5.76999 5.73279C7.26076 5.72193 8.59721 6.64995 9.10786 8.05057L10.0474 7.70804ZM8.68304 12.7428C10.1566 11.5218 10.7029 9.50596 10.0474 7.70804L9.10786 8.05057C9.61851 9.4512 9.19295 11.0216 8.04501 11.9728L8.68304 12.7428ZM8.76503 12.5479C8.77125 12.6222 8.74071 12.695 8.68327 12.7426L8.04478 11.973C7.85067 12.134 7.74751 12.3798 7.7685 12.6311L8.76503 12.5479ZM8.65209 12.3694C8.71664 12.4068 8.75882 12.4735 8.76503 12.5479L7.7685 12.6311C7.7895 12.8824 7.932 13.1077 8.15015 13.2343L8.65209 12.3694ZM9.51972 12.9955C9.25163 12.7602 8.96173 12.5509 8.65396 12.3704L8.14827 13.2332C8.40128 13.3815 8.63958 13.5535 8.85997 13.747L9.51972 12.9955ZM4.45541 8.92566C4.43665 8.99431 4.38709 9.05036 4.32126 9.0774L3.94134 8.15238C3.72027 8.24317 3.55385 8.4314 3.49082 8.66193L4.45541 8.92566ZM4.40766 9.27146C4.40763 9.1555 4.42344 9.04008 4.45465 8.92841L3.49158 8.65918C3.43583 8.8586 3.4076 9.0647 3.40766 9.27177L4.40766 9.27146ZM5.78948 10.6534C5.02632 10.6534 4.40766 10.0348 4.40766 9.27161H3.40766C3.40766 10.5871 4.47404 11.6534 5.78948 11.6534V10.6534ZM7.1713 9.27161C7.1713 10.0348 6.55264 10.6534 5.78948 10.6534V11.6534C7.10492 11.6534 8.1713 10.5871 8.1713 9.27161H7.1713ZM7.32866 9.60159C7.22986 9.52175 7.17211 9.4018 7.17131 9.27479L8.17129 9.26844C8.17019 9.09564 8.09162 8.93244 7.95721 8.82382L7.32866 9.60159ZM7.67365 9.68634C7.54359 9.71123 7.40936 9.6742 7.31045 9.58614L7.97542 8.83927C7.84205 8.72053 7.66104 8.6706 7.48568 8.70416L7.67365 9.68634ZM4.11834 9.06036C5.18875 9.68817 6.44907 9.91058 7.66972 9.68707L7.48961 8.70343C6.50476 8.88376 5.48789 8.70431 4.62426 8.19778L4.11834 9.06036ZM4.32482 9.07592C4.25992 9.10316 4.18606 9.09879 4.12482 9.0641L4.61777 8.19404C4.40956 8.07607 4.15843 8.06123 3.93777 8.15386L4.32482 9.07592Z" fill="#16D898"/>
</g>
<g id="Shape_2">
<path fill-rule="evenodd" clip-rule="evenodd" d="M13.9407 9.59235C14.0189 9.64743 14.0627 9.7393 14.0562 9.8347C14.0498 9.93011 13.994 10.0152 13.9091 10.0593C11.8361 11.1159 10.53 13.2449 10.5273 15.5716C10.5273 15.8668 10.7666 16.1062 11.0618 16.1062H22.3855C22.6807 16.1062 22.92 15.8668 22.92 15.5716C22.9172 13.2124 21.5748 11.0595 19.4575 10.0189C19.3708 9.97683 19.313 9.89205 19.3053 9.79605C19.2977 9.70006 19.3415 9.6072 19.4204 9.55199C19.6559 9.38635 19.8751 9.19859 20.0749 8.99126C21.8716 7.1313 21.8521 4.17634 20.031 2.34027C18.2099 0.504208 15.2552 0.460517 13.3806 2.24193C11.506 4.02335 11.3991 6.97644 13.14 8.88872C13.379 9.15324 13.6477 9.38934 13.9407 9.59235ZM17.5287 13.4825C17.5128 13.9142 17.1583 14.2558 16.7264 14.2558C16.2945 14.2558 15.9399 13.9142 15.924 13.4825V12.1647C15.9399 11.7331 16.2945 11.3914 16.7264 11.3914C17.1583 11.3914 17.5128 11.7331 17.5287 12.1647V13.4825ZM14.1796 4.89381C14.0862 5.1595 14.0382 5.43906 14.0378 5.72072H14.0411C14.0418 6.77982 14.6828 7.73338 15.6633 8.13381C15.9746 8.26256 16.3082 8.32891 16.6451 8.32908C18.078 8.31029 19.2352 7.15359 19.2546 5.72072C19.2547 5.68132 19.2371 5.64397 19.2066 5.619C19.1762 5.59403 19.1361 5.58411 19.0975 5.59199C17.5418 5.91885 15.9201 5.61771 14.5855 4.75417C14.515 4.70911 14.4279 4.6987 14.3488 4.7259C14.2697 4.75311 14.2074 4.81495 14.1796 4.89381Z" fill="#16D898"/>
<path d="M14.0562 9.8347L13.5574 9.8009L13.5574 9.8009L14.0562 9.8347ZM13.9407 9.59235L14.2287 9.1836L14.2255 9.18134L13.9407 9.59235ZM13.9091 10.0593L14.1362 10.5047L14.1393 10.5031L13.9091 10.0593ZM10.5273 15.5716L10.0273 15.571V15.5716H10.5273ZM22.92 15.5716L23.42 15.5716L23.42 15.571L22.92 15.5716ZM19.4575 10.0189L19.678 9.57016L19.6759 9.56912L19.4575 10.0189ZM19.4204 9.55199L19.707 9.96165L19.708 9.96098L19.4204 9.55199ZM20.0749 8.99126L19.7153 8.64388L19.7149 8.64428L20.0749 8.99126ZM20.031 2.34027L19.676 2.69238L19.676 2.69238L20.031 2.34027ZM13.3806 2.24193L13.0361 1.87949L13.0361 1.87949L13.3806 2.24193ZM13.14 8.88872L13.511 8.55351L13.5097 8.55212L13.14 8.88872ZM17.5287 13.4825L18.0284 13.501L18.0287 13.4917V13.4825H17.5287ZM15.924 13.4825H15.424V13.4917L15.4244 13.501L15.924 13.4825ZM15.924 12.1647L15.4244 12.1463L15.424 12.1555V12.1647H15.924ZM17.5287 12.1647H18.0287V12.1555L18.0284 12.1463L17.5287 12.1647ZM14.0378 5.72072L13.5378 5.72L13.5371 6.22072H14.0378V5.72072ZM14.1796 4.89381L13.7081 4.72761L13.708 4.72788L14.1796 4.89381ZM14.0411 5.72072L14.5411 5.7204L14.5408 5.22072H14.0411V5.72072ZM15.6633 8.13381L15.8544 7.67176L15.8523 7.67092L15.6633 8.13381ZM16.6451 8.32908L16.6448 8.82913L16.6517 8.82904L16.6451 8.32908ZM19.2546 5.72072L19.7545 5.72748L19.7546 5.72248L19.2546 5.72072ZM19.2066 5.619L19.5235 5.23226L19.5235 5.23226L19.2066 5.619ZM19.0975 5.59199L18.9975 5.10208L18.9947 5.10267L19.0975 5.59199ZM14.5855 4.75417L14.8571 4.33438L14.8549 4.333L14.5855 4.75417ZM14.3488 4.7259L14.1861 4.25311L14.1861 4.25311L14.3488 4.7259ZM14.5551 9.8685C14.5733 9.59888 14.4496 9.33926 14.2287 9.18361L13.6528 10.0011C13.5882 9.9556 13.552 9.87971 13.5574 9.8009L14.5551 9.8685ZM14.1393 10.5031C14.3792 10.3787 14.5368 10.1381 14.5551 9.8685L13.5574 9.8009C13.5627 9.72209 13.6088 9.65178 13.6789 9.61541L14.1393 10.5031ZM11.0273 15.5722C11.0298 13.4333 12.2305 11.4761 14.1362 10.5047L13.682 9.61379C11.4418 10.7557 10.0302 13.0565 10.0273 15.571L11.0273 15.5722ZM11.0618 15.6062C11.0427 15.6062 11.0273 15.5907 11.0273 15.5716H10.0273C10.0273 16.143 10.4905 16.6062 11.0618 16.6062V15.6062ZM22.3855 15.6062H11.0618V16.6062H22.3855V15.6062ZM22.42 15.5716C22.42 15.5907 22.4045 15.6062 22.3855 15.6062V16.6062C22.9568 16.6062 23.42 16.143 23.42 15.5716H22.42ZM19.2369 10.4676C21.1833 11.4243 22.4175 13.4034 22.42 15.5722L23.42 15.571C23.417 13.0214 21.9662 10.6948 19.678 9.57017L19.2369 10.4676ZM18.8069 9.83565C18.8286 10.1083 18.993 10.3492 19.2391 10.4687L19.6759 9.56912C19.7487 9.60448 19.7974 9.67576 19.8038 9.75646L18.8069 9.83565ZM19.1337 9.14233C18.9096 9.29917 18.7852 9.56296 18.8069 9.83565L19.8038 9.75646C19.8102 9.83716 19.7734 9.91523 19.707 9.96165L19.1337 9.14233ZM19.7149 8.64428C19.5372 8.82868 19.3423 8.99567 19.1328 9.14299L19.708 9.96098C19.9696 9.77703 20.213 9.5685 20.4349 9.33824L19.7149 8.64428ZM19.676 2.69238C21.3056 4.33534 21.323 6.97953 19.7153 8.64388L20.4345 9.33864C22.4202 7.28307 22.3986 4.01733 20.386 1.98817L19.676 2.69238ZM13.725 2.60438C15.4025 1.01032 18.0464 1.04941 19.676 2.69238L20.386 1.98817C18.3733 -0.0409969 15.1079 -0.0892825 13.0361 1.87949L13.725 2.60438ZM13.5097 8.55212C11.9519 6.84096 12.0476 4.19845 13.725 2.60438L13.0361 1.87949C10.9644 3.84826 10.8463 7.11193 12.7703 9.22531L13.5097 8.55212ZM14.2255 9.18134C13.964 9.0002 13.7243 8.78954 13.511 8.55352L12.769 9.22391C13.0338 9.51694 13.3314 9.77848 13.656 10.0034L14.2255 9.18134ZM16.7264 14.7558C17.4273 14.7558 18.0026 14.2014 18.0284 13.501L17.0291 13.4641C17.0231 13.6269 16.8893 13.7558 16.7264 13.7558V14.7558ZM15.4244 13.501C15.4502 14.2014 16.0255 14.7558 16.7264 14.7558V13.7558C16.5634 13.7558 16.4297 13.6269 16.4237 13.4641L15.4244 13.501ZM15.424 12.1647V13.4825H16.424V12.1647H15.424ZM16.7264 10.8914C16.0255 10.8914 15.4502 11.4459 15.4244 12.1463L16.4237 12.1831C16.4297 12.0203 16.5634 11.8914 16.7264 11.8914V10.8914ZM18.0284 12.1463C18.0026 11.4459 17.4273 10.8914 16.7264 10.8914V11.8914C16.8893 11.8914 17.0231 12.0203 17.0291 12.1831L18.0284 12.1463ZM18.0287 13.4825V12.1647H17.0287V13.4825H18.0287ZM14.5378 5.72143C14.5381 5.49605 14.5765 5.27234 14.6513 5.05974L13.708 4.72788C13.5958 5.04665 13.5383 5.38207 13.5378 5.72L14.5378 5.72143ZM14.0411 5.22072H14.0378V6.22072H14.0411V5.22072ZM15.8523 7.67092C15.0598 7.34725 14.5416 6.57648 14.5411 5.7204L13.5411 5.72103C13.5419 6.98316 14.3058 8.1195 15.4742 8.59669L15.8523 7.67092ZM16.6453 7.82908C16.3739 7.82894 16.1052 7.77549 15.8544 7.67176L15.4722 8.59585C15.844 8.74964 16.2425 8.82888 16.6448 8.82908L16.6453 7.82908ZM18.7546 5.71395C18.7389 6.8759 17.8005 7.81389 16.6385 7.82912L16.6517 8.82904C18.3555 8.8067 19.7315 7.43129 19.7545 5.72748L18.7546 5.71395ZM18.8897 6.00573C18.8038 5.93534 18.7542 5.83001 18.7546 5.71895L19.7546 5.72248C19.7552 5.53264 19.6704 5.35259 19.5235 5.23226L18.8897 6.00573ZM19.1975 6.08189C19.0886 6.1041 18.9756 6.07613 18.8897 6.00574L19.5235 5.23226C19.3767 5.11193 19.1835 5.06412 18.9975 5.10209L19.1975 6.08189ZM14.3138 5.17396C15.7592 6.10916 17.5155 6.43529 19.2003 6.0813L18.9947 5.10267C17.5681 5.40241 16.0809 5.12626 14.8571 4.33438L14.3138 5.17396ZM14.5115 5.1987C14.4462 5.22117 14.3742 5.21257 14.316 5.17535L14.8549 4.333C14.6559 4.20565 14.4096 4.17623 14.1861 4.25311L14.5115 5.1987ZM14.6512 5.06C14.6283 5.12514 14.5768 5.17622 14.5115 5.1987L14.1861 4.25311C13.9627 4.32999 13.7866 4.50475 13.7081 4.72761L14.6512 5.06Z" fill="#16D898"/>
</g>
</g>
</svg>
