<svg width="40" height="40" viewBox="0 0 40 40" fill="none" xmlns="http://www.w3.org/2000/svg">
<path d="M20 0C8.97167 0 0 8.97167 0 20C0 31.0283 8.97167 40 20 40C31.0283 40 40 31.0283 40 20C40 8.97167 31.0283 0 20 0ZM28.77 15.6417C28.78 15.83 28.7833 16.0183 28.7833 16.2083C28.7833 22.0033 24.3717 28.69 16.3033 28.69C13.8267 28.69 11.52 27.9617 9.57833 26.7167C11.8683 26.985 14.1983 26.3717 16.0733 24.9017C14.155 24.8633 12.535 23.5967 11.9767 21.8533C12.6383 21.9783 13.315 21.955 13.9567 21.7767C11.95 21.3767 10.4383 19.6017 10.4383 17.4783C10.4383 17.46 10.4383 17.44 10.4383 17.42C11.03 17.7483 11.7083 17.945 12.425 17.97C11.2483 17.1817 10.4733 15.8417 10.4733 14.32C10.4733 13.5167 10.69 12.7633 11.0667 12.1133C13.23 14.7683 16.4617 16.5167 20.1083 16.6967C20.0333 16.3767 19.995 16.04 19.995 15.6983C19.995 13.275 21.96 11.3117 24.3833 11.3117C25.645 11.3117 26.7833 11.8433 27.585 12.6983C28.585 12.5 30.835 12.255 30.835 12.255C30.245 13.1367 29.6267 15.0217 28.77 15.6417Z" fill="#414155"/>
</svg>
