<svg width="26" height="26" viewBox="0 0 26 26" fill="none" xmlns="http://www.w3.org/2000/svg">
<path d="M25 13.0084C24.9993 15.9324 23.9311 18.7556 21.9958 20.9476C20.0606 23.1396 17.3917 24.5496 14.4903 24.9127C11.5889 25.2758 8.65476 24.5671 6.23902 22.9197C3.82328 21.2722 2.09218 18.7994 1.37088 15.9658C0.649586 13.1321 0.987737 10.1326 2.32182 7.53063C3.65589 4.92869 5.89409 2.90337 8.61599 1.83511C11.3379 0.766859 14.3562 0.729183 17.1039 1.72916C19.8516 2.72914 22.1397 4.69796 23.5383 7.26579C24.4995 9.02708 25.0022 11.0019 25 13.0084V13.0084Z" stroke="white" stroke-width="1.5" stroke-linecap="round" stroke-linejoin="round"/>
<path d="M18.231 7.26468C17.2557 4.63708 15.4061 2.42505 12.9927 1C10.5793 2.42505 8.72964 4.63708 7.75438 7.26468" stroke="white" stroke-width="1.5" stroke-linecap="round" stroke-linejoin="round"/>
<path d="M7.75337 18.75C8.72942 21.3775 10.5793 23.5894 12.9927 25.0147C15.5202 23.7051 17.4325 21.4555 18.3177 18.75" stroke="white" stroke-width="1.5" stroke-linecap="round" stroke-linejoin="round"/>
<path d="M3.89014 5.17651H22.0953" stroke="white" stroke-width="1.5" stroke-linecap="round" stroke-linejoin="round"/>
<path d="M3.89014 20.8381H22.0953" stroke="white" stroke-width="1.5" stroke-linecap="round" stroke-linejoin="round"/>
<path d="M10.3825 10.9192V12.3235C10.3827 13.1204 10.5347 13.9098 10.8304 14.6498L11.4266 16.1398L12.4707 12.4854L13.5148 16.1398L14.111 14.6498C14.4066 13.9098 14.5587 13.1204 14.5589 12.3235V10.9192" stroke="white" stroke-width="1.5" stroke-linecap="round" stroke-linejoin="round"/>
<path d="M16.6471 10.9192V12.3235C16.6474 13.1204 16.7994 13.9098 17.095 14.6498L17.6912 16.1398L18.7354 12.4854L19.7795 16.1398L20.3757 14.6498C20.6713 13.9098 20.8233 13.1204 20.8236 12.3235V10.9192" stroke="white" stroke-width="1.5" stroke-linecap="round" stroke-linejoin="round"/>
<path d="M4.11777 10.9192V12.3235C4.11802 13.1204 4.27004 13.9098 4.56569 14.6498L5.16188 16.1398L6.20599 12.4854L7.25011 16.1398L7.84629 14.6498C8.14195 13.9098 8.29396 13.1204 8.29422 12.3235V10.9192" stroke="white" stroke-width="1.5" stroke-linecap="round" stroke-linejoin="round"/>
</svg>
