<svg width="21" height="17" viewBox="0 0 21 17" fill="none" xmlns="http://www.w3.org/2000/svg">
<path fill-rule="evenodd" clip-rule="evenodd" d="M2.57143 16.7143H18C19.4202 16.7143 20.5714 15.563 20.5714 14.1429V5.14286C20.5714 3.7227 19.4202 2.57143 18 2.57143H9.32014C9.1178 2.57143 8.92726 2.47616 8.80586 2.31429L7.84286 1.02857C7.35723 0.381071 6.59509 0 5.78571 0H2.57143C1.15127 0 0 1.15127 0 2.57143V14.1429C0 15.563 1.15127 16.7143 2.57143 16.7143ZM2.57143 13.5V3.21429C2.57143 2.85925 2.85925 2.57143 3.21429 2.57143H5.46429C5.66663 2.57143 5.85716 2.6667 5.97857 2.82857L6.94286 4.11429C7.42848 4.76179 8.19062 5.14286 9 5.14286H17.3571C17.7122 5.14286 18 5.43067 18 5.78571V13.5C18 13.855 17.7122 14.1429 17.3571 14.1429H3.21429C2.85925 14.1429 2.57143 13.855 2.57143 13.5Z" fill="#414155"/>
</svg>
