<svg width="22" height="17" viewBox="0 0 22 17" fill="none" xmlns="http://www.w3.org/2000/svg">
<g id="team-meeting-chat">
<path id="Shape" fill-rule="evenodd" clip-rule="evenodd" d="M8.18984 13.3714C8.26784 13.4396 8.30004 13.5463 8.27275 13.6463C8.10383 14.2742 8.01765 14.9215 8.01639 15.5717C8.01639 15.6133 8.01831 15.6546 8.02023 15.6958C8.02213 15.7367 8.02402 15.7775 8.02402 15.8183C8.02786 15.8934 8.00064 15.9667 7.94875 16.0212C7.89759 16.0757 7.82607 16.1065 7.7513 16.1063H0.616752C0.441043 16.1062 0.276567 16.0199 0.176801 15.8752C0.0770345 15.7306 0.0547213 15.5462 0.117116 15.3819C0.522351 14.3214 1.27032 13.4268 2.24221 12.8401C2.31814 12.7941 2.36695 12.714 2.37303 12.6255C2.3791 12.5369 2.3417 12.4509 2.27275 12.395C0.946317 11.3281 0.434335 9.54224 0.994044 7.93465C1.55375 6.32705 3.06415 5.2453 4.76635 5.2329C6.46855 5.22049 7.99454 6.28013 8.57761 7.8794C9.16068 9.47867 8.67478 11.2718 7.36403 12.3579C7.29569 12.4146 7.25938 12.5011 7.26677 12.5896C7.27416 12.678 7.32432 12.7573 7.40112 12.8019C7.6815 12.9662 7.94561 13.1569 8.18984 13.3714ZM3.1313 8.61499C3.05368 8.64687 2.99525 8.71296 2.97312 8.7939C2.92963 8.94944 2.90761 9.1102 2.90766 9.27171C2.90766 10.311 3.75018 11.1535 4.78948 11.1535C5.82878 11.1535 6.6713 10.311 6.6713 9.27171C6.67115 9.24882 6.66074 9.2272 6.64293 9.21281C6.6257 9.19747 6.60232 9.19101 6.57966 9.19535C5.47691 9.39727 4.33832 9.19634 3.3713 8.62917C3.29781 8.58753 3.20918 8.5823 3.1313 8.61499Z" fill="#86869F"/>
<path id="Shape_2" fill-rule="evenodd" clip-rule="evenodd" d="M12.9408 9.59241C13.019 9.64749 13.0627 9.73935 13.0563 9.83476C13.0498 9.93017 12.994 10.0153 12.9092 10.0593C10.8362 11.1159 9.53006 13.245 9.52734 15.5717C9.52734 15.8669 9.76667 16.1062 10.0619 16.1062H21.3855C21.6807 16.1062 21.9201 15.8669 21.9201 15.5717C21.9173 13.2125 20.5748 11.0596 18.4575 10.019C18.3709 9.97689 18.313 9.89211 18.3054 9.79611C18.2978 9.70012 18.3415 9.60726 18.4204 9.55204C18.656 9.38641 18.8752 9.19865 19.075 8.99132C20.8717 7.13135 20.8522 4.1764 19.031 2.34033C17.2099 0.504265 14.2552 0.460574 12.3806 2.24199C10.506 4.02341 10.3992 6.9765 12.1401 8.88877C12.3791 9.1533 12.6477 9.3894 12.9408 9.59241ZM16.5288 13.4826C16.5129 13.9142 16.1584 14.2559 15.7264 14.2559C15.2945 14.2559 14.94 13.9142 14.9241 13.4826V12.1648C14.94 11.7331 15.2945 11.3915 15.7264 11.3915C16.1584 11.3915 16.5129 11.7331 16.5288 12.1648V13.4826ZM13.1797 4.89386C13.0862 5.15956 13.0383 5.43912 13.0379 5.72077H13.0412C13.0418 6.77988 13.6829 7.73343 14.6633 8.13386C14.9747 8.26262 15.3083 8.32897 15.6452 8.32914C17.078 8.31035 18.2352 7.15365 18.2546 5.72077C18.2548 5.68138 18.2372 5.64402 18.2067 5.61905C18.1762 5.59409 18.1361 5.58417 18.0975 5.59205C16.5419 5.91891 14.9201 5.61777 13.5855 4.75423C13.5151 4.70916 13.4279 4.69875 13.3489 4.72596C13.2698 4.75316 13.2075 4.815 13.1797 4.89386Z" fill="#86869F"/>
</g>
</svg>
